<?xml version="1.0"?>
<svg version="1.1" xmlns="http://www.w3.org/2000/svg" width="200" height="40" style=""><path fill="#fc0341" d="M15.861328125,22.3515625q0-0.90234375,0.0751953125-1.9755859375t0.2666015625-2.1533203125t0.57421875-2.0849609375t0.984375-1.791015625t1.4697265625-1.2509765625t2.0712890625-0.46484375q0.95703125,0,1.763671875,0.369140625t1.408203125,0.998046875t0.9365234375,1.4697265625t0.3349609375,1.7568359375q0,0.24609375-0.3349609375,0.3076171875t-0.4716796875,0.0615234375q-0.24609375,0-0.4716796875-0.041015625t-0.3349609375-0.328125q-0.19140625-0.533203125-0.4033203125-1.12109375t-0.51953125-1.0732421875t-0.7587890625-0.7998046875q-0.41015625-0.2734375-1.0390625-0.2734375l-0.109375,0q-1.1484375,0.02734375-1.708984375,0.8203125t-0.7724609375,1.927734375t-0.2119140625,2.40625l0,2.255859375q0,0.560546875,0.041015625,1.626953125t0.1982421875,2.32421875t0.41015625,2.5634765625t0.68359375,2.37890625t1.0322265625,1.75t1.44921875,0.6767578125q0.751953125,0,1.3125-0.51953125t0.9638671875-1.3330078125t0.68359375-1.818359375t0.46484375-2.0166015625t0.2802734375-1.8798828125t0.150390625-1.4287109375q-0.150390625-0.013671875-0.287109375-0.013671875q-0.642578125,0-1.2578125,0.205078125q-0.779296875,0.232421875-1.55859375,0.232421875q-0.109375,0-0.2939453125-0.013671875t-0.3486328125-0.068359375t-0.2939453125-0.1572265625t-0.1298828125-0.2666015625q0-0.314453125,0.6904296875-0.533203125t1.572265625-0.3759765625t1.7021484375-0.2255859375t1.080078125-0.068359375q0.13671875,0,0.3896484375,0.02734375t0.505859375,0.095703125t0.4306640625,0.1982421875t0.177734375,0.3212890625q0,0.1640625-0.123046875,0.2939453125t-0.3076171875,0.1982421875t-0.3759765625,0.095703125t-0.30078125,0.02734375q0.013671875,0.314453125,0.013671875,0.642578125q0,0.73828125-0.041015625,1.572265625q-0.068359375,1.203125-0.2734375,2.40625t-0.62890625,2.337890625t-1.080078125,2.0029296875t-1.6201171875,1.4013671875t-2.2900390625,0.533203125q-1.44921875,0-2.447265625-0.615234375t-1.626953125-1.640625t-0.9775390625-2.32421875t-0.4990234375-2.6591796875t-0.1845703125-2.6455078125t-0.0341796875-2.32421875z M31.45642578125,28.900390625q0-0.9296875,0.2529296875-1.791015625t0.7587890625-1.5380859375t1.2646484375-1.080078125t1.7568359375-0.4033203125q0.615234375,0,1.3603515625,0.1845703125t1.4013671875,0.546875t1.09375,0.9228515625t0.4375,1.28515625q0,0.341796875-0.1162109375,0.51953125t-0.4716796875,0.177734375l-0.150390625-0.02734375q0.396484375,1.06640625,0.68359375,2.1875t0.560546875,2.2421875q0.109375,0.21875,0.1640625,0.3896484375t0.0546875,0.3349609375q0,0.21875-0.123046875,0.3623046875t-0.3212890625,0.2119140625t-0.41015625,0.095703125t-0.3759765625,0.02734375q-0.587890625,0-0.8818359375-0.205078125t-0.423828125-0.560546875t-0.1572265625-0.7998046875t-0.109375-0.8955078125q-0.1640625,0.533203125-0.4306640625,1.0390625t-0.62890625,0.9091796875t-0.8544921875,0.642578125t-1.107421875,0.2392578125q-0.90234375,0-1.517578125-0.51953125t-0.9912109375-1.2783203125t-0.546875-1.6201171875t-0.1708984375-1.599609375z M33.39783203125,28.708984375q0,0.505859375,0.068359375,1.06640625t0.2255859375,1.107421875t0.4033203125,1.0322265625t0.615234375,0.8544921875q0.669921875-0.724609375,0.9912109375-1.763671875t0.57421875-2.0029296875t0.57421875-1.654296875t0.9912109375-0.6904296875q0.423828125,0,0.7109375,0.150390625q-0.13671875-0.341796875-0.451171875-0.6630859375t-0.7041015625-0.587890625t-0.806640625-0.4375t-0.7861328125-0.1708984375q-0.109375,0-0.2529296875,0.0341796875t-0.2255859375,0.0068359375q-0.560546875,0.1640625-0.9228515625,0.5673828125t-0.587890625,0.9501953125t-0.3212890625,1.12109375t-0.095703125,1.080078125z M43.3191015625,28.96875l0-0.396484375q0-0.4921875,0.02734375-0.9296875q0.02734375-0.615234375,0.02734375-1.01171875q0-0.21875,0.02734375-0.4990234375t0.13671875-0.4443359375q0.13671875-0.13671875,0.3212890625-0.2802734375t0.4033203125-0.1435546875q0.697265625,0,1.09375,0.1572265625t0.423828125,0.6494140625l0.0546875,0.423828125q0.24609375-0.587890625,0.65625-1.4560546875t0.9501953125-1.654296875t1.216796875-1.33984375t1.4287109375-0.5537109375q0.697265625,0,1.1484375,0.65625t0.7177734375,1.6748046875t0.3759765625,2.26953125t0.150390625,2.4541015625t0.0546875,2.1943359375t0.095703125,1.4970703125q0.0546875,0.423828125,0.1845703125,0.8955078125t0.1298828125,0.8681640625q0,0.109375-0.1572265625,0.2119140625t-0.3349609375,0.1708984375t-0.3623046875,0.109375t-0.2666015625,0.041015625q-0.533203125,0-0.7587890625-0.7998046875t-0.2802734375-2.0029296875t-0.0546875-2.6044921875t-0.095703125-2.6044921875t-0.3896484375-2.0029296875t-0.9365234375-0.8271484375q-0.587890625,0-1.216796875,0.7587890625t-1.080078125,2.0166015625q-0.4375,1.2578125-0.6015625,2.857421875q-0.0546875,0.505859375-0.0546875,1.01171875q0,1.107421875,0.232421875,2.21484375q0.02734375,0.19140625-0.1572265625,0.287109375t-0.4580078125,0.150390625t-0.5537109375,0.068359375t-0.4306640625,0.013671875q-0.533203125,0-0.8544921875-0.3759765625t-0.4990234375-0.9638671875t-0.2392578125-1.3193359375t-0.0751953125-1.4423828125z M55.74232421875,29.4609375q0-0.95703125,0.2119140625-2.255859375t0.7177734375-2.4609375t1.3330078125-1.9755859375t2.0849609375-0.8134765625q1.17578125,0,1.763671875,0.6767578125t0.587890625,1.8251953125q0,0.751953125-0.2802734375,1.6474609375t-0.7998046875,1.6953125t-1.23046875,1.3330078125t-1.5859375,0.533203125l-0.35546875-0.02734375q0,0.369140625,0.109375,0.9912109375t0.3212890625,1.2373046875t0.546875,1.080078125t0.8134765625,0.46484375q0.697265625,0,1.33984375-0.560546875t1.216796875-1.244140625t1.06640625-1.244140625t0.90234375-0.560546875q0.21875,0,0.451171875,0.068359375t0.259765625,0.3828125q0,0.19140625-0.1025390625,0.314453125t-0.1845703125,0.2734375q-0.423828125,0.724609375-0.9228515625,1.380859375t-1.1279296875,1.189453125t-1.3740234375,0.8408203125t-1.6474609375,0.3076171875q-1.17578125,0-1.955078125-0.4169921875t-1.2578125-1.12109375t-0.6904296875-1.626953125t-0.2119140625-1.9345703125z M58.18958984375,28.421875l0.3828125,0.341796875q0.2734375,0.24609375,0.546875,0.109375t0.4921875-0.4990234375t0.4033203125-0.8955078125t0.328125-1.09375t0.2119140625-1.09375t0.068359375-0.888671875l0-0.46484375t-0.041015625-0.4921875t-0.1435546875-0.3896484375t-0.3212890625-0.1982421875q-0.068359375-0.013671875-0.123046875-0.013671875q-0.46484375,0-0.79296875,0.587890625q-0.35546875,0.65625-0.57421875,1.5927734375t-0.314453125,1.9208984375t-0.123046875,1.4765625z M67.1675,25.373046875q0-0.560546875,0.328125-0.9638671875t0.7998046875-0.65625t1.0322265625-0.3759765625t1.0390625-0.123046875q0.369140625,0,0.984375,0.109375t1.203125,0.328125t1.0185546875,0.57421875t0.4306640625,0.833984375q0,0.21875-0.1640625,0.3896484375t-0.341796875,0.1708984375q-0.369140625,0-0.669921875-0.2392578125t-0.6220703125-0.505859375t-0.7041015625-0.505859375t-0.861328125-0.2392578125t-0.8681640625,0.3076171875t-0.3896484375,0.8134765625q0,0.833984375,0.587890625,1.6337890625t1.2919921875,1.681640625t1.2919921875,1.8525390625t0.587890625,2.146484375q0,0.505859375-0.2119140625,0.8544921875t-0.560546875,0.5673828125t-0.7861328125,0.3349609375t-0.84765625,0.1162109375q-0.451171875,0-1.052734375-0.2119140625t-1.134765625-0.560546875t-0.8955078125-0.8134765625t-0.3623046875-0.970703125q0-0.24609375,0.3486328125-0.314453125t0.5126953125-0.068359375q0.08203125,0,0.2529296875,0.0546875t0.3349609375,0.123046875t0.2939453125,0.150390625t0.1025390625,0.177734375q0.13671875,0.1640625,0.4169921875,0.4853515625t0.560546875,0.51953125t0.4921875,0.1435546875t0.2119140625-0.615234375q0-1.06640625-0.57421875-1.9619140625t-1.2509765625-1.75t-1.2509765625-1.6953125t-0.57421875-1.7978515625z M76.80166015625,30.390625l0-1.28515625q0-0.697265625,0.0341796875-1.9755859375t0.0888671875-2.802734375t0.150390625-3.1787109375t0.21875-3.1240234375t0.2939453125-2.6318359375t0.3896484375-1.72265625q0.13671875-0.314453125,0.451171875-0.396484375t0.615234375-0.08203125q0.478515625,0,0.8408203125,0.2119140625t0.3623046875,0.7724609375l-0.24609375,0.2734375q-0.478515625,3.158203125-0.615234375,6.34375t-0.19140625,6.37109375q0.341796875-0.533203125,0.7724609375-1.0458984375t0.95703125-0.9091796875t1.134765625-0.6357421875t1.3330078125-0.2392578125q0.9296875,0,1.5380859375,0.560546875t1.0048828125,1.4560546875t0.587890625,2.0029296875t0.2939453125,2.21484375t0.1435546875,2.0986328125t0.123046875,1.6474609375q-0.259765625,0.35546875-0.765625,0.35546875l-0.041015625,0q-0.21875,0-0.478515625-0.0546875t-0.341796875-0.2734375l0.02734375,0.02734375q-0.19140625-0.423828125-0.259765625-1.2236328125t-0.109375-1.763671875t-0.1435546875-1.9755859375t-0.3076171875-1.83203125t-0.6015625-1.353515625t-1.06640625-0.560546875l-0.08203125,0q-0.806640625,0-1.353515625,0.4921875q-0.57421875,0.51953125-0.9296875,1.3671875t-0.546875,1.88671875t-0.2939453125,2.0029296875t-0.1572265625,1.75t-0.13671875,1.1552734375q-0.08203125,0.314453125-0.4853515625,0.4169921875t-0.6904296875,0.1025390625q-0.669921875,0-1.09375-0.3828125q-0.314453125-0.751953125-0.369140625-1.873046875t-0.0546875-2.1875z M95.20865234375,16.6640625q0-0.642578125,0.0341796875-1.271484375t0.1162109375-1.244140625q0.0546875-0.314453125,0.4853515625-0.451171875t0.7177734375-0.13671875l0.328125,0.02734375q0.396484375,0.0546875,0.7998046875-0.0546875t0.7998046875-0.109375q0.9296875,0,2.078125,0.205078125t2.1533203125,0.697265625t1.6884765625,1.2919921875t0.68359375,1.9755859375t-0.7109375,2.1943359375t-1.791015625,1.791015625t-2.32421875,1.2099609375t-2.283203125,0.4375q0.109375,2.638671875,0.3076171875,5.236328125t0.6767578125,5.1953125l0.02734375,0.177734375q0,0.19140625-0.1708984375,0.314453125t-0.4033203125,0.1982421875t-0.4716796875,0.1025390625t-0.3896484375,0.02734375q-0.341796875,0-0.8271484375-0.1298828125t-0.5947265625-0.5126953125q-0.314453125-1.203125-0.4921875-2.6455078125t-0.259765625-3.0146484375t-0.1162109375-3.1650390625t-0.0341796875-3.1103515625l0-3.076171875q0-0.505859375-0.013671875-1.052734375t-0.013671875-1.107421875z M97.79263671875,14.44921875q0,1.873046875,0.041015625,3.7392578125t0.095703125,3.7392578125q0.806640625-0.1640625,1.6474609375-0.5810546875t1.517578125-0.9912109375t1.09375-1.3056640625t0.4169921875-1.5380859375q0-0.724609375-0.3623046875-1.298828125t-0.9365234375-0.984375q-0.560546875-0.396484375-1.271484375-0.615234375q-0.62890625-0.19140625-1.23046875-0.19140625l-0.150390625,0z M107.891640625,28.900390625q0-0.9296875,0.2529296875-1.791015625t0.7587890625-1.5380859375t1.2646484375-1.080078125t1.7568359375-0.4033203125q0.615234375,0,1.3603515625,0.1845703125t1.4013671875,0.546875t1.09375,0.9228515625t0.4375,1.28515625q0,0.341796875-0.1162109375,0.51953125t-0.4716796875,0.177734375l-0.150390625-0.02734375q0.396484375,1.06640625,0.68359375,2.1875t0.560546875,2.2421875q0.109375,0.21875,0.1640625,0.3896484375t0.0546875,0.3349609375q0,0.21875-0.123046875,0.3623046875t-0.3212890625,0.2119140625t-0.41015625,0.095703125t-0.3759765625,0.02734375q-0.587890625,0-0.8818359375-0.205078125t-0.423828125-0.560546875t-0.1572265625-0.7998046875t-0.109375-0.8955078125q-0.1640625,0.533203125-0.4306640625,1.0390625t-0.62890625,0.9091796875t-0.8544921875,0.642578125t-1.107421875,0.2392578125q-0.90234375,0-1.517578125-0.51953125t-0.9912109375-1.2783203125t-0.546875-1.6201171875t-0.1708984375-1.599609375z M109.833046875,28.708984375q0,0.505859375,0.068359375,1.06640625t0.2255859375,1.107421875t0.4033203125,1.0322265625t0.615234375,0.8544921875q0.669921875-0.724609375,0.9912109375-1.763671875t0.57421875-2.0029296875t0.57421875-1.654296875t0.9912109375-0.6904296875q0.423828125,0,0.7109375,0.150390625q-0.13671875-0.341796875-0.451171875-0.6630859375t-0.7041015625-0.587890625t-0.806640625-0.4375t-0.7861328125-0.1708984375q-0.109375,0-0.2529296875,0.0341796875t-0.2255859375,0.0068359375q-0.560546875,0.1640625-0.9228515625,0.5673828125t-0.587890625,0.9501953125t-0.3212890625,1.12109375t-0.095703125,1.080078125z M119.76798828125,29.994140625q0-0.505859375,0.0205078125-1.4833984375t0.1435546875-1.9892578125t0.4033203125-1.83203125t0.8408203125-1.052734375q0.13671875-0.0546875,0.4443359375-0.095703125t0.615234375-0.02734375t0.546875,0.109375t0.2392578125,0.35546875q0,0.0546875-0.0546875,0.150390625t-0.287109375,0.30078125q-0.423828125,1.17578125-0.51953125,2.337890625t-0.095703125,2.392578125q0,0.724609375,0.0478515625,1.44921875t0.1572265625,1.462890625q0.21875-0.314453125,0.4443359375-0.943359375t0.478515625-1.3740234375t0.51953125-1.5107421875t0.6015625-1.39453125t0.73828125-1.0390625t0.9091796875-0.41015625q0.560546875,0,0.9365234375,0.7041015625t0.697265625,1.626953125t0.6015625,1.873046875t0.6767578125,1.4560546875q0.19140625-0.19140625,0.3076171875-0.4990234375t0.1845703125-0.6630859375t0.08203125-0.7041015625t0.013671875-0.5947265625q0-0.615234375-0.1845703125-1.3330078125t-0.3896484375-1.3466796875t-0.3896484375-1.0595703125t-0.1845703125-0.4990234375q0-0.109375,0.1162109375-0.177734375t0.2666015625-0.109375t0.3076171875-0.0546875t0.2392578125-0.013671875q0.505859375,0,0.8681640625,0.560546875t0.57421875,1.298828125t0.3076171875,1.4970703125t0.095703125,1.1826171875q0,0.533203125-0.08203125,1.134765625t-0.3076171875,1.1142578125t-0.6630859375,0.8544921875t-1.107421875,0.341796875q-0.806640625,0-1.326171875-0.451171875t-0.8408203125-1.09375t-0.505859375-1.4013671875t-0.3486328125-1.3740234375q-0.314453125,0.724609375-0.57421875,1.83203125t-0.65625,2.173828125t-1.01171875,1.818359375t-1.599609375,0.751953125t-1.4013671875-0.4853515625t-0.6630859375-1.3330078125l0.02734375,0.02734375q-0.1640625-0.615234375-0.2119140625-1.23046875t-0.0478515625-1.23046875z M133.8865234375,28.900390625q0-0.9296875,0.2529296875-1.791015625t0.7587890625-1.5380859375t1.2646484375-1.080078125t1.7568359375-0.4033203125q0.615234375,0,1.3603515625,0.1845703125t1.4013671875,0.546875t1.09375,0.9228515625t0.4375,1.28515625q0,0.341796875-0.1162109375,0.51953125t-0.4716796875,0.177734375l-0.150390625-0.02734375q0.396484375,1.06640625,0.68359375,2.1875t0.560546875,2.2421875q0.109375,0.21875,0.1640625,0.3896484375t0.0546875,0.3349609375q0,0.21875-0.123046875,0.3623046875t-0.3212890625,0.2119140625t-0.41015625,0.095703125t-0.3759765625,0.02734375q-0.587890625,0-0.8818359375-0.205078125t-0.423828125-0.560546875t-0.1572265625-0.7998046875t-0.109375-0.8955078125q-0.1640625,0.533203125-0.4306640625,1.0390625t-0.62890625,0.9091796875t-0.8544921875,0.642578125t-1.107421875,0.2392578125q-0.90234375,0-1.517578125-0.51953125t-0.9912109375-1.2783203125t-0.546875-1.6201171875t-0.1708984375-1.599609375z M135.8279296875,28.708984375q0,0.505859375,0.068359375,1.06640625t0.2255859375,1.107421875t0.4033203125,1.0322265625t0.615234375,0.8544921875q0.669921875-0.724609375,0.9912109375-1.763671875t0.57421875-2.0029296875t0.57421875-1.654296875t0.9912109375-0.6904296875q0.423828125,0,0.7109375,0.150390625q-0.13671875-0.341796875-0.451171875-0.6630859375t-0.7041015625-0.587890625t-0.806640625-0.4375t-0.7861328125-0.1708984375q-0.109375,0-0.2529296875,0.0341796875t-0.2255859375,0.0068359375q-0.560546875,0.1640625-0.9228515625,0.5673828125t-0.587890625,0.9501953125t-0.3212890625,1.12109375t-0.095703125,1.080078125z M145.73552734375,25.072265625q0-0.560546875,0.1982421875-0.943359375t0.8408203125-0.3828125q0.24609375,0,0.615234375,0.0751953125t0.423828125,0.3759765625q0.13671875,0.806640625,0.150390625,1.75t0.095703125,1.77734375q0.314453125-0.615234375,0.806640625-1.326171875t1.12109375-1.3125t1.3671875-0.998046875t1.50390625-0.396484375q0.0546875,0,0.205078125,0.041015625t0.2802734375,0.1162109375t0.1572265625,0.1708984375t-0.150390625,0.177734375q-0.0546875,0.1640625-0.232421875,0.1982421875t-0.314453125,0.0341796875q-0.08203125,0-0.259765625-0.068359375q-1.01171875,0.533203125-1.72265625,1.44921875t-1.162109375,2.0302734375t-0.65625,2.3515625t-0.205078125,2.4130859375q0,0.587890625-0.2666015625,0.7109375t-0.8544921875,0.123046875q-0.314453125,0-0.6630859375-0.068359375t-0.4853515625-0.4375q-0.24609375-0.779296875-0.4033203125-1.791015625t-0.2392578125-2.0849609375t-0.1162109375-2.1123046875t-0.0341796875-1.873046875z"/><path fill="#" d=""/></svg>
